<svg xmlns="http://www.w3.org/2000/svg" xmlns:xlink="http://www.w3.org/1999/xlink" viewBox="0 0 262 228"><defs><style>.cls-1{fill:none;}.cls-2{isolation:isolate;}.cls-3{fill:url(#linear-gradient);}.cls-4{clip-path:url(#clip-path);}.cls-5{fill:#2d1170;opacity:0.48;mix-blend-mode:screen;}</style><linearGradient id="linear-gradient" x1="68.26" y1="-225.37" x2="248.69" y2="-225.37" gradientTransform="translate(-29.31 337.28)" gradientUnits="userSpaceOnUse"><stop offset="0" stop-color="#db1fa6"/><stop offset="1" stop-color="#2d1170"/></linearGradient><clipPath id="clip-path"><circle class="cls-1" cx="129.16" cy="111.92" r="90.21" transform="translate(-23.86 35.8) rotate(-14.46)"/></clipPath></defs><title>planet1</title><g class="cls-2"><g id="Слой_1" data-name="Слой 1"><circle class="cls-3" cx="129.16" cy="111.92" r="90.21" transform="translate(-23.86 35.8) rotate(-14.46)"/><g class="cls-4"><path class="cls-5" d="M22.63-101.95S-10.82-91.6,31.46-20.61,87.71,45,90.67,106.61s-12.26,107.9,32.26,135.16,123.49,0,123.49,0-35-332.85-39.21-333.12S22.63-101.95,22.63-101.95Z"/><path class="cls-5" d="M203.19,360.36s-34.55,5.69-28.42-76.72,21-83.82-3.84-140.27S111.77,52.3,139.44,8s110.5-55.15,110.5-55.15S367.3,266.31,363.6,268.44,203.19,360.36,203.19,360.36Z"/></g></g></g></svg>